<svg xmlns="http://www.w3.org/2000/svg" xmlns:xlink="http://www.w3.org/1999/xlink" width="237.637" height="46.031" viewBox="0 0 237.637 46.031"><defs><clipPath id="clip-path"><rect id="Rectangle_1" data-name="Rectangle 1" width="237.637" height="46.031" fill="#fff"/></clipPath></defs><g id="Group_36160" data-name="Group 36160" transform="translate(-30 -51)"><g id="Group_1" data-name="Group 1" transform="translate(30 51)" clip-path="url(#clip-path)"><path id="Path_1" data-name="Path 1" d="M0,62.54a8.973,8.973,0,0,1,4.777-5.782A36.617,36.617,0,0,1,9.3,54.792c.573-.217.761-.45.755-1.048-.022-2.3.011-4.6.023-6.9,0-.257,0-.514,0-.827-.889-.052-1.726-.09-2.563-.152-1.212-.09-2.428-.156-3.63-.321-.341-.047-.641-.4-.959-.614l.1-.181,7.016.624c.022-.369.046-.6.048-.828.007-1.519.026-3.038,0-4.557-.009-.558.084-.86.75-.768a18.7,18.7,0,0,0,2.187.142c.553.011.768.236.763.792-.014,1.41.012,2.821.026,4.231,0,.232.027.464.044.741a3.964,3.964,0,0,0,3.415-1.752,4.242,4.242,0,0,1,1.674-1.234A1.627,1.627,0,0,1,21.22,43.2a1.865,1.865,0,0,1-1.5,2.332c-.79.136-1.589.231-2.389.29-.974.073-1.953.1-2.93.125-.348.009-.593.067-.59.493.016,2.342.023,4.685.036,7.028,0,.037.037.075.091.177,1.132-.084,2.292-.2,3.454-.25a15.033,15.033,0,0,1,7.88,1.559A8.47,8.47,0,0,1,29.3,63a9.572,9.572,0,0,1-3.41,6.568,10.664,10.664,0,0,1-7.2,2.372,9,9,0,0,1-4.467-1.214,1.285,1.285,0,0,1-.506-.468c.868,0,1.742.07,2.6-.012,4.7-.447,8.28-5.558,7.029-10.076a6.341,6.341,0,0,0-5.077-4.524,18.567,18.567,0,0,0-3.677-.308c-.885-.029-.813.053-.944.907a42.012,42.012,0,0,1-1.078,5.786A8.194,8.194,0,0,1,7.7,67.548a7.461,7.461,0,0,1-3.9.508A4.419,4.419,0,0,1,.168,64.585C.118,64.423.056,64.263,0,64.1V62.54m9.981-6.456a11.567,11.567,0,0,0-5.532,3.127,5.783,5.783,0,0,0-1.683,3.151,1.862,1.862,0,0,0,1.477,2.168,3.088,3.088,0,0,0,2.76-.8c2.3-1.991,2.855-4.662,2.978-7.644" transform="translate(0 -28.97)" fill="#fff"/><path id="Path_2" data-name="Path 2" d="M305.478,52.91a8.467,8.467,0,0,1,4.807.794,2.833,2.833,0,0,1,1.618,2.772c-.094,1.983-.36,3.957-.544,5.936-.246,2.65-.563,5.3-.692,7.953a6.963,6.963,0,0,0,1.136,4.072,5.324,5.324,0,0,0,4.32,2.516,7.791,7.791,0,0,0,4.6-.834,6.808,6.808,0,0,0,3.29-7.256.378.378,0,0,1,.074-.311,10.879,10.879,0,0,1,.594.99,9.005,9.005,0,0,1-7.01,12.774c-6.112.821-9.534-2.9-10.474-7.681a25.6,25.6,0,0,1-.286-4.92c0-4.251.09-8.5.112-12.753a15.131,15.131,0,0,0-.229-2.124,2.62,2.62,0,0,0-1.321-1.927" transform="translate(-225.739 -39.054)" fill="#fff"/><path id="Path_3" data-name="Path 3" d="M413.838,66.486c1.823-.383,4.108.278,4.511,3.422.267,2.083.412,4.181.666,6.266a11.823,11.823,0,0,0,1.973,5.768,18.486,18.486,0,0,0,1.692,1.754c.314-.866.538-1.577.825-2.262a17.843,17.843,0,0,1,5.364-7.624,10.63,10.63,0,0,1,6.88-2.152,10.235,10.235,0,0,1,5.291,1.349,5.891,5.891,0,0,1,2.88,6c-.412,1.8-1.847,2.724-3.335,2.145a2.608,2.608,0,0,1-1.538-1.969c-.334-1.275-.587-2.572-.943-3.84a3.8,3.8,0,0,0-3.371-2.9,8.1,8.1,0,0,0-4.99,1.38,11.355,11.355,0,0,0-4.7,6.578,2.439,2.439,0,0,0,.528,2.311,6.736,6.736,0,0,1,1.463,3.28,3.246,3.246,0,0,1-3.8,3.706c-2.718-.37-4.246-2.176-5.588-4.256a14.785,14.785,0,0,1-2.1-6.422q-.5-4.224-1-8.449c-.1-.839-.159-1.683-.292-2.516a15.424,15.424,0,0,0-.416-1.569" transform="translate(-305.813 -49.059)" fill="#fff"/><path id="Path_4" data-name="Path 4" d="M156.633,79.451a3.863,3.863,0,0,1,3.7.939,4.963,4.963,0,0,1,1.166,3.035c.3,2.187.476,4.39.811,6.57a9.763,9.763,0,0,0,2.427,5.492,11.755,11.755,0,0,0,1.151.937c.448-1.169.805-2.283,1.293-3.338a15.783,15.783,0,0,1,4.7-6.45A11.066,11.066,0,0,1,183.5,85.378a5.782,5.782,0,0,1,3.577,5.875,2.988,2.988,0,0,1-1.4,2.379,2.276,2.276,0,0,1-3.358-1.336c-.346-.973-.493-2.015-.814-3a9.54,9.54,0,0,0-1.1-2.665c-1.116-1.537-2.778-1.724-4.518-1.3-3.724.9-5.965,3.409-7.334,6.836-.112.28-.176.579-.268.867a2.477,2.477,0,0,0,.43,2.442,6.34,6.34,0,0,1,1.556,3.5c.174,2.408-1.5,3.856-3.894,3.513-2.615-.374-4.131-2.122-5.473-4.12a14.888,14.888,0,0,1-2.2-6.521c-.487-3.69-.947-7.382-1.462-11.068a5.257,5.257,0,0,0-.6-1.33" transform="translate(-115.747 -58.629)" fill="#fff"/><path id="Path_5" data-name="Path 5" d="M655.829,94.613a15.569,15.569,0,0,1,2.384.656c.911.406,1.038,1.322,1.04,2.22.005,3.058,0,6.116,0,9.174a8.561,8.561,0,0,0,.029.975,1.306,1.306,0,0,0,1.215,1.318c2.386.058,4.773.041,7.16.05.038,0,.075-.038.178-.094v-3.768c.7.381,1.4.78,2.112,1.142.56.283,1.168.475,1.71.787a3.607,3.607,0,0,1,1.023,5.309,3.029,3.029,0,0,1-2.454,1.277c-3.584.009-7.169,0-10.752-.059a3.185,3.185,0,0,1-3.266-3,14.483,14.483,0,0,1-.126-1.811c-.013-3.99,0-7.981-.023-11.971,0-.658-.135-1.316-.232-2.2" transform="translate(-484.637 -69.916)" fill="#fff"/><path id="Path_6" data-name="Path 6" d="M769.158,24.431c.992.159,2,.251,2.969.5.9.228,1.165.717,1.164,1.778q-.011,8.621-.033,17.243-.014,6.865-.017,13.729a1.508,1.508,0,0,1-.944,1.614A1.9,1.9,0,0,1,770.28,59a1.754,1.754,0,0,1-.549-1.464q.006-5.075-.008-10.151-.021-10.215-.051-20.431a3.138,3.138,0,0,0-.61-2.335Z" transform="translate(-568.313 -18.054)" fill="#fff"/><path id="Path_7" data-name="Path 7" d="M833.453,82.848a10.275,10.275,0,0,0,3.909-.44.491.491,0,0,0,.286-.355c.018-1.968.012-3.937.012-5.783h-9.216c-.014.265-.036.5-.037.729,0,2.3,0,4.6-.009,6.9a1.769,1.769,0,0,1-1.773,1.972,1.936,1.936,0,0,1-2.125-1.9c-.054-1.908-.029-3.818-.044-5.727-.006-.781-.026-1.562-.047-2.342a3.08,3.08,0,0,0-.825-2.388,5.459,5.459,0,0,1,3.64.47c.439.241.7.785,1.077,1.162.187.188.438.434.665.439,1.758.04,3.517.018,5.276.035a3.433,3.433,0,0,0,2.781-1.313,2.961,2.961,0,0,1,2.48-1.061,2.005,2.005,0,0,1,2.164,2.034q.086,3.968.011,7.94a2.108,2.108,0,0,1-1.433,2.127,2.262,2.262,0,0,1-2.567-.585c-1.239-1.371-2.781-1.431-4.438-1.083a2.131,2.131,0,0,1-.963.061,1.225,1.225,0,0,1-.755-.571,1.04,1.04,0,0,1,.285-.826,3.872,3.872,0,0,1,.9-.631c.621-.385,1.258-.758,1.092-1.652-.134-.72-.563-1-1.679-1.126a2.046,2.046,0,0,1,2.6.287,1.71,1.71,0,0,1,.152,2.014,10.886,10.886,0,0,1-1.421,1.608" transform="translate(-608.604 -54.128)" fill="#fff"/><path id="Path_8" data-name="Path 8" d="M568.2,54.758l1.632.226a53.067,53.067,0,0,0,9.55.5c.282-.013.565-.04.847-.028a3.752,3.752,0,0,0,3.437-1.6A2.516,2.516,0,0,1,586,52.824a1.528,1.528,0,0,1,1.45,1.187,1.564,1.564,0,0,1-.593,1.788,4.579,4.579,0,0,1-2.583.755,10.6,10.6,0,0,0-6.66,2.421,4.941,4.941,0,0,0-2.047,2.761,1.825,1.825,0,0,0,.844,1.833,1.7,1.7,0,0,0,2.053-.014,6.7,6.7,0,0,1,2.87-1.315c.505-.1,1.1-.217,1.39.375a1.208,1.208,0,0,1-.414,1.46,4.8,4.8,0,0,1-3.024,1.2,3.116,3.116,0,0,0-2.732,2.492,1.615,1.615,0,0,0,1.181,1.845A5.157,5.157,0,0,0,580.8,69.4c.246-.075.487-.167.744-.256a7.365,7.365,0,0,1-3.609,1.846,6.392,6.392,0,0,1-1.852.144,2.019,2.019,0,0,1-1.89-2.859,8.3,8.3,0,0,1,1.171-2.128c.177-.265.563-.393.853-.583l-.2-.263c-.35-.094-.7-.179-1.049-.283-1.565-.472-2.6-1.79-2.282-3.083a5.64,5.64,0,0,1,.93-1.9,8.138,8.138,0,0,1,3.052-2.38c.254-.128.6-.164.509-.616-.1-.482-.446-.351-.757-.37-2.1-.128-4.2-.295-6.3-.388-.985-.044-1.266-.828-1.925-1.524" transform="translate(-419.878 -39.03)" fill="#fff"/><path id="Path_9" data-name="Path 9" d="M577.938,132.171a17.931,17.931,0,0,1,2.494.025,2.351,2.351,0,0,1,1.85,1.387.942.942,0,0,0,.654.477,19.122,19.122,0,0,0,3.251-.023,5.887,5.887,0,0,0,1.772-.823c.188-.1.323-.29.5-.408a1.666,1.666,0,0,1,2.757,1.334c.071,1.036.027,2.08.026,3.121,0,1.453.01,2.906-.024,4.359-.023.981-.468,1.641-1.118,1.793a1.837,1.837,0,0,1-2.265-.933c-.618-.986-.618-.986-2.5-1.737.749,0,1.442.024,2.132-.017.175-.01.483-.225.485-.35.032-1.729.022-3.459.022-5.225h-5.351c-.013.29-.033.522-.033.753,0,1.909,0,3.817-.007,5.726-.005,1.215-.406,1.8-1.339,2.006a1.484,1.484,0,0,1-1.81-1.08,4.521,4.521,0,0,1-.137-1.09c-.013-1.974-.006-3.948-.006-5.921,0-.3.011-.608-.011-.911-.074-1-.216-1.971-1.417-2.321l.069-.143" transform="translate(-427.027 -97.645)" fill="#fff"/><path id="Path_10" data-name="Path 10" d="M669.268,66.5c.045,0,.106-.016.167-.018,1.533-.034,1.535-.034,1.535-1.539q0-3.774-.008-7.547c0-.211-.021-.423-.035-.693-.8.054-1.546.145-2.3.148-1.54.006-3.083,0-4.62-.088-.337-.02-.653-.414-.922-.775.179,0,.358,0,.537,0,1.691-.022,3.383-.026,5.073-.075a2.868,2.868,0,0,0,2.267-1.35,2.422,2.422,0,0,1,2.622-1,1.984,1.984,0,0,1,1.889,2.166c.039,2.732.02,5.465.028,8.2q0,1.561.017,3.122a2.24,2.24,0,0,1-1.351,2.179,2.033,2.033,0,0,1-2.526-.586c-.375-.391-.69-.843-1.09-1.2a13.96,13.96,0,0,0-1.288-.936" transform="translate(-490.003 -39.534)" fill="#fff"/><path id="Path_11" data-name="Path 11" d="M841.336,138.436c2.308,4.037,7.142,6.464,11.264,5.624v-2.937c.923.381,1.833.772,2.754,1.134a2.509,2.509,0,0,1,1.434,3.595,3.058,3.058,0,0,1-2.187,1.78,12.424,12.424,0,0,1-9.519-1.437,7.118,7.118,0,0,1-2.989-3.976c-.406-1.221-.646-2.5-.96-3.749l.2-.034" transform="translate(-621.57 -102.3)" fill="#fff"/><path id="Path_12" data-name="Path 12" d="M743.717,77.878a6.236,6.236,0,0,1,1.949,3.522,5.145,5.145,0,0,1-.223,3.3,3.9,3.9,0,0,1-2.539,2.243,2.4,2.4,0,0,1-3.081-2.868,6.713,6.713,0,0,1,1.142-2.134,9.11,9.11,0,0,1,1.329-1.33,3.2,3.2,0,0,0,1.424-2.736" transform="translate(-546.649 -57.549)" fill="#fff"/><path id="Path_13" data-name="Path 13" d="M814.19,53.918c4.552.107,8.977.226,13.4.307,1.258.023,2.518-.068,3.777-.1a3.962,3.962,0,0,0,3.4-1.954,2.741,2.741,0,0,1,2.417-1.283,1.8,1.8,0,0,1,1.867,1.464,1.84,1.84,0,0,1-1.408,2.112,12.531,12.531,0,0,1-2.2.249c-3.514.087-7.03.18-10.545.2-2.366.011-4.733-.1-7.1-.163a21.043,21.043,0,0,1-2.6-.156c-.354-.054-.658-.424-1.019-.673" transform="translate(-601.661 -37.606)" fill="#fff"/><path id="Path_14" data-name="Path 14" d="M588,23.138a9.739,9.739,0,0,1,4.193.074,3.341,3.341,0,0,1,2.619,3.1,2.692,2.692,0,0,1-2.547,2.957c-1.431.072-2.481-.992-2.618-2.661-.023-.281-.021-.564-.031-.845-.039-1.126-.228-2.169-1.616-2.62" transform="translate(-434.515 -16.958)" fill="#fff"/><path id="Path_15" data-name="Path 15" d="M815.11,135.928a10.6,10.6,0,0,1-.781,4.59,2.867,2.867,0,0,1-3.809,1.656,2.441,2.441,0,0,1-1.432-3.111,2.826,2.826,0,0,1,2.774-2.124c.411.025.824.025,1.236.02a2.383,2.383,0,0,0,2.013-1.031" transform="translate(-597.809 -100.446)" fill="#fff"/><path id="Path_16" data-name="Path 16" d="M821.586,18.1c1.8.064,3.568.162,5.339.181,2.564.026,5.129-.022,7.694-.007a3.306,3.306,0,0,0,3.159-1.649,1.782,1.782,0,0,1,2.508-.58,1.352,1.352,0,0,1,.67,1.5,1.39,1.39,0,0,1-1.248,1.228c-1.732.137-3.467.331-5.2.333-3.866.005-7.733-.1-11.6-.137a1.433,1.433,0,0,1-1.321-.865" transform="translate(-607.126 -11.645)" fill="#fff"/><path id="Path_17" data-name="Path 17" d="M102.794,60.494a6.7,6.7,0,0,1,4.957,1.061,2.7,2.7,0,0,1,.968,3.228,2.194,2.194,0,0,1-2.579,1.363,2.237,2.237,0,0,1-1.965-2.225c-.031-.561-.061-1.125-.138-1.681a2.019,2.019,0,0,0-1.243-1.747" transform="translate(-75.961 -44.646)" fill="#fff"/><path id="Path_18" data-name="Path 18" d="M862.988,129.69l.594-.773.075.05c-.324.625-.618,1.269-.982,1.871a2.013,2.013,0,0,1-1.562,1.045,1.777,1.777,0,0,1-2.077-1.8,9.438,9.438,0,0,1,.043-1.1,1.839,1.839,0,0,0-.794-1.937,4.363,4.363,0,0,1,2.99.28,3.838,3.838,0,0,1,1.714,2.36" transform="translate(-634.245 -93.79)" fill="#fff"/><path id="Path_19" data-name="Path 19" d="M847.456.056a5.5,5.5,0,0,1,3.86.7,2.149,2.149,0,0,1,.951,2.148A1.832,1.832,0,0,1,851.06,4.54,2.009,2.009,0,0,1,848.289,2.7a6.212,6.212,0,0,1,0-.78,2.032,2.032,0,0,0-.831-1.862" transform="translate(-626.243 0)" fill="#fff"/><path id="Path_20" data-name="Path 20" d="M831.482,37.552a5.082,5.082,0,0,1,3.745.694,3.609,3.609,0,0,1,1.244,2.335c.014.049-.033.12-.06.177a2.94,2.94,0,0,1-2.851,1.3,2.189,2.189,0,0,1-1.315-2.423,2.242,2.242,0,0,0-.764-2.087" transform="translate(-614.439 -27.685)" fill="#fff"/><path id="Path_21" data-name="Path 21" d="M789.4,68.817a6.418,6.418,0,0,1,3.456.455,2.417,2.417,0,0,1,1.28,2.935,1.782,1.782,0,0,1-2.159,1.209,1.81,1.81,0,0,1-1.583-1.641c-.031-.3-.008-.606-.029-.908a2.339,2.339,0,0,0-.965-2.05" transform="translate(-583.341 -50.82)" fill="#fff"/><path id="Path_22" data-name="Path 22" d="M866.383,40.878a12.494,12.494,0,0,0,.95-2c.33-1.182-.321-1.933-1.545-1.946a1,1,0,0,1-.331-.03,6.879,6.879,0,0,1,3.851-.684,1.747,1.747,0,0,1,1.445,1.26,1.935,1.935,0,0,1-.495,2.044,5.254,5.254,0,0,1-3.874,1.358" transform="translate(-639.545 -26.709)" fill="#fff"/><path id="Path_23" data-name="Path 23" d="M888.883,126.73a5.638,5.638,0,0,1,4.373.584,2.655,2.655,0,0,1,1.154,2.809,1.482,1.482,0,0,1-1.487,1.205,1.681,1.681,0,0,1-1.647-1.31,6.942,6.942,0,0,1-.1-.966c-.115-1.586-.723-2.185-2.292-2.323" transform="translate(-656.856 -93.523)" fill="#fff"/></g></g></svg>