<?xml version="1.0" encoding="UTF-8"?><svg id="a" xmlns="http://www.w3.org/2000/svg" viewBox="0 0 201.25 68.9"><defs><style>.b{fill:#595750;}.c{fill:#f08300;}.d{fill:none;}</style></defs><rect class="d" width="201.25" height="68.9"/><path class="b" d="m67.347,65.058c.418.881,1.08,1.264,1.73,1.264.732,0,1.487-.533,1.487-1.522,0-.614-.349-1.509-1.52-1.509-.965,0-1.8.337-2.613.882.023.998.023,1.106.034,1.314.012.174.069.963.069,1.125,0,.349-.009.835-.371,1.3-.151.185-.279.257-.452.257-.371,0-.582-.535-.777-1.022-.048-.106-.349-.546-.732-.906-.209.243-.232.278-.417.533-.035.035-.128.176-.372.176-.546,0-.894-.722-.894-1.256,0-.23.103-.743.592-1.034-.012.429-.012.72.22.72.082,0,.163-.048.302-.138.603-.395,1.162-.745,1.87-1.139.012-.872.012-.963.012-1.893-.303.069-.64.14-1.011.14-.883,0-1.313-.849-1.313-1.347.245.21.442.349.976.349.442,0,.802-.081,1.348-.269,0-1.067,0-1.451-.105-1.788-.128-.407-.743-.499-.976-.535.266-.393.848-.499,1.056-.499.465,0,1.534.327,1.534.801,0,.118-.058.289-.082.348-.268.592-.315.698-.395,1.243.046-.023.419-.254.628-.382.126-.082.243-.141.442-.141.348,0,.742.234.742.594,0,.232-.103.394-.905.789-.418.209-.569.278-1.011.431-.035.836-.035.87-.023,1.683,1.847-.838,3.101-.883,3.322-.883.429,0,2.368.208,2.368,2.23,0,1.916-1.534,2.6-2.519,2.6-1.603,0-2.184-1.696-2.336-2.519h.094Zm-3.032,1.056c.14.069.36.186.802.418.082.047.185.081.257.081.092,0,.126-.059.126-.407-.012-.266-.012-.985,0-1.301-.557.488-.882.861-1.185,1.209Zm5.504-4.412c.429-.234.906-.512.906-.744,0-.267-.569-.581-.626-.605-.326-.173-.535-.173-.709-.173.372-.267.963-.348,1.405-.348.965,0,1.708.592,1.708,1.405,0,.686-.5.754-.592.754-.14,0-.209-.036-.535-.198-.22-.115-.522-.149-.731-.149-.279,0-.488.058-.802.149l-.023-.091Z"/><path class="b" d="m79.319,62.804c-.162.465-.36,1.044-.511,1.416-.255.639-.419,1.08-.419,1.429,0,.033,0,.149.035.266.151.429.163.475.163.605,0,.349-.291.57-.698.57-.847,0-2.298-1.059-2.356-4.055,0-.231-.012-1.266-.023-1.473-.046-1.279-.185-1.531-.592-2.23.511.071,1.289.208,1.916.916.163.186.28.351.28.745,0,.196-.058.37-.105.546-.14.545-.349,1.3-.349,1.974,0,.651.22,1.636.557,1.636.186,0,.383-.245.442-.301.731-.859,1.463-1.928,1.568-2.08l.092.036Zm1.8,1.116c.082-.013,1.51-.234,1.625-.291.046-.012.163-.092.163-.326,0-.196-.163-1.054-.476-1.682-.349-.675-.883-1.187-1.197-1.463,1.905.104,3.402,2.065,3.402,3.633,0,.906-.488,1.453-.882,1.453-.291,0-.406-.163-.674-.501-.151-.194-.291-.313-.65-.429-.454-.15-1.103-.267-1.313-.302v-.091Z"/><path class="b" d="m95.304,64.313c-.837,2.705-3.056,3.867-4.924,3.867-.232,0-1.521-.023-2.184-.638-.651-.592-.685-1.626-.685-2.673,0-.786.117-4.246.117-4.946,0-.23,0-.579-.105-.766-.094-.185-.465-.441-1.116-.418.488-.37.988-.546,1.336-.546.523,0,1.347.338,1.66.86.069.104.082.244.082.35,0,.162-.046.312-.163.683-.162.5-.255.812-.382,1.812-.117.941-.268,2.229-.268,3.159,0,.87.046,1.242.476,1.463.279.137.628.209.954.209,1.59,0,3.878-.916,5.144-2.486l.057.07Z"/><path class="b" d="m101.498,62.804c-.163.465-.361,1.044-.511,1.416-.257.639-.42,1.08-.42,1.429,0,.033,0,.149.037.266.151.429.162.475.162.605,0,.349-.291.57-.696.57-.848,0-2.299-1.059-2.358-4.055,0-.231-.014-1.266-.023-1.473-.048-1.279-.186-1.531-.594-2.23.511.071,1.289.208,1.917.916.163.186.277.351.277.745,0,.196-.056.37-.103.546-.14.545-.349,1.3-.349,1.974,0,.651.221,1.636.558,1.636.186,0,.383-.245.442-.301.73-.859,1.462-1.928,1.567-2.08l.094.036Zm1.798,1.116c.083-.013,1.511-.234,1.628-.291.048-.012.162-.092.162-.326,0-.196-.162-1.054-.476-1.682-.348-.675-.883-1.187-1.197-1.463,1.906.104,3.402,2.065,3.402,3.633,0,.906-.486,1.453-.882,1.453-.288,0-.406-.163-.673-.501-.151-.194-.289-.313-.651-.429-.454-.15-1.102-.267-1.314-.302v-.091Z"/><path class="b" d="m111.806,60.099l.454-.745c.011-.034.092-.162.174-.162.058,0,.069.013.222.128l.987.756c.023.023.115.091.115.172,0,.118-.092.129-.174.129h-3.39c-.72,0-.976.024-1.266.083l-.187-.429c.722.068,1.546.068,1.662.068h1.405Zm-.115,4.435l.325-.523c.094-.127.106-.139.175-.139s.185.082.23.129l.908.684c.046.035.14.105.14.219,0,.118-.257.281-.406.384-.014.93,0,1.044.023,2.078v.023c0,.234-.06.338-.209.455-.175.105-.477.198-.731.198-.465,0-.443-.291-.42-.686h-1.242c0,.557-.012.697-.092.825-.152.221-.512.266-.698.266-.451,0-.474-.185-.474-.357,0-.095.023-.524.034-.605v-.744c0-.941,0-1.962-.129-2.786l1.453.58h1.116Zm-.071-5.841l.419-.72c.034-.058.092-.151.174-.151.048,0,.082.012.208.118l.872.732c.058.045.117.104.117.185,0,.104-.095.116-.175.116h-2.567c-.708,0-.962.034-1.253.081l-.187-.428c.722.068,1.535.068,1.65.068h.743Zm-.162,2.81l.488-.777c.011-.035.092-.152.175-.152.069,0,.185.094.208.128l.894.779c.069.068.117.103.117.174,0,.114-.094.128-.175.128h-2.402c-.709,0-.965.022-1.256.081l-.186-.43c.719.069,1.533.069,1.65.069h.488Zm.069,1.499l.395-.781c.034-.081.105-.161.173-.161.072,0,.175.08.222.128l.894.789c.023.024.117.092.117.174,0,.104-.094.126-.174.126h-2.347c-.708,0-.962.024-1.256.082l-.197-.429c.722.071,1.545.071,1.66.071h.512Zm-1.045,1.811v2.263h1.242v-2.263h-1.242Zm4.912-2.104c0,.569-.011,3.288,0,3.565s.071.359,1.068.359c.221,0,1.174-.01,1.336-.114.198-.116.557-.975.789-1.836h.092c.105,1.381.163,1.557.371,1.706.048.023.28.13.315.153.046.035.105.082.105.185,0,.289-.245.813-.58,1.08-.326.244-.814.407-2.139.407-1.856,0-2.169,0-2.461-.337-.254-.291-.279-.58-.279-2.288,0-.94,0-1.963-.011-2.823-.012-.648-.046-.836-.094-1.021l1.593.686h1.739v-3.473h-1.973c-.708,0-.952.023-1.243.081l-.197-.429c.722.069,1.534.069,1.65.069h1.741l.385-.579s.082-.105.174-.105.197.057.232.092l1.022.673c.035.024.117.094.117.187,0,.104-.058.138-.429.395-.014.325-.014.951.022,1.718.023.478.06,1.115.06,1.58,0,.836-.908.836-.931.836-.673,0-.66-.361-.637-.768h-1.836Z"/><path class="b" d="m122.145,60.167c.279.501.429,1.048.429,1.616,0,.823-.418,1.228-.826,1.228-.243,0-.51-.185-.51-.487,0-.162.022-.196.255-.546.394-.615.511-1.287.523-1.811h.128Zm4.075,1.244c-.255,0-.637,0-.953.034-.034.487-.371.664-.614.664-.348,0-.408-.293-.466-.605-.069-.361-.185-.767-.279-1.021,0,1.229.012,4.563.024,5.793,0,.21.034,1.196.034,1.417,0,.558-.046.86-.8.86-.569,0-.569-.255-.569-.454,0-.243.068-.66.068-.985,0-.289.037-2.475.037-4.774,0-.777-.012-3.101-.046-3.808-.024-.324-.082-.558-.128-.732l1.579.325c.152.034.257.058.257.221,0,.15-.257.266-.455.347v1.347c.64.28,1.128.489,1.313,1.057.408.023.814.036,1.207.036h.42c-.28-.058-.325-.338-.371-.651-.106-.789-.198-1.011-.315-1.256-.082.012-.406.012-.788.082l-.197-.429c.556.045,1.102.07,1.659.07h.673c0-.675-.023-.86-.091-1.209l1.613.29c.129.024.257.047.257.177,0,.173-.209.219-.431.347v.395h1.105l.37-.652c.048-.082.095-.173.186-.173.058,0,.14.069.209.127l.802.673c.045.048.115.104.115.177,0,.126-.126.126-.174.126h-1.636l.534.362c.082.045.185.104.185.194,0,.176-.151.199-.406.221-.523.546-1.242,1.105-1.289,1.128h1.406l.371-.767c.034-.071.092-.163.174-.163s.151.058.211.117l.868.79c.035.033.106.105.106.173,0,.128-.117.128-.175.128h-5.597Zm-.605,4.158c.082.253.246.743.246,1.276,0,.569-.314,1.197-.872,1.197-.336,0-.683-.255-.683-.603,0-.28.14-.407.591-.781.325-.277.557-.66.614-1.089h.105Zm1.116-.802c-.046.405-.511.442-.754.442-.429,0-.534-.141-.534-.615,0-.244.023-1.441.023-1.72,0-.196,0-.753-.058-1.243l1.428.465h2.822l.28-.393c.045-.058.103-.139.162-.139.057,0,.128.058.197.103l.814.533c.069.049.196.118.196.257,0,.175-.196.303-.36.417v.779c0,.08.024.814.024.87,0,.21-.024.685-.732.685-.162,0-.417-.046-.535-.186-.068-.081-.068-.163-.068-.255h-2.904Zm3.102,1.497c.056.384.128.813.208.931.035.045.303.195.348.219.082.057.151.173.151.349,0,.253-.186.475-.371.567-.28.14-.499.175-1.405.175-2.336,0-2.393-.116-2.393-1.567,0-.847,0-1.067-.092-1.604l1.428.294c.095.022.232.045.232.138,0,.115-.151.21-.291.314q0,.824.023.894c.083.266.372.266.813.266,1.011,0,1.023-.058,1.232-.976h.117Zm-1.372-5.131c.198-.583.325-1.603.338-1.906h-2.173c.348.127.534.21.709.384.28.255.418.569.418.849,0,.347-.246.592-.628.673h1.334Zm-1.741,1.242v.871h2.924v-.871h-2.924Zm0,1.147v.966h2.924v-.966h-2.924Zm1.045,1.373c.443.056,1.044.126,1.37.334.279.187.442.465.442.732,0,.314-.266.641-.614.641-.245,0-.303-.14-.409-.431-.174-.454-.499-.918-.87-1.208l.082-.068Zm2.068.569c1.217.185,2.124.73,2.124,1.473,0,.465-.361.813-.673.813-.257,0-.314-.14-.477-.581-.222-.58-.592-1.185-1.033-1.601l.058-.104Z"/><path class="b" d="m137.343,58.786c0-.313-.533-.361-.917-.395.442-.557,1.15-.58,1.347-.58.605,0,1.313.291,1.313.662,0,.198-.115.325-.209.429-.197.185-.243.255-.662.859.151-.045.546-.172,1.08-.475.185-.104.289-.14.406-.14.28,0,.94.42.94.686,0,.602-1.754.845-3.193,1.057-.336.474-.742,1.079-.963,1.486.394-.234.8-.349,1.265-.349,1.045,0,1.323.452,1.534.917.336-.175,1.973-.965,2.112-1.07.094-.068.164-.15.164-.23,0-.198-.174-.244-.628-.37.197-.153.406-.234.651-.234.779,0,1.673.801,1.673,1.486,0,.442-.302.454-.523.454-.977.011-2.242.382-3.195.721.037.149.105.452.105.894,0,.695-.197,1.056-.336,1.16-.175.149-.326.208-.5.208-.429,0-.709-.51-.709-.858,0-.14.082-.732.082-.86-.406.21-1.114.581-1.531,1.162-.151.197-.151.465-.151.488,0,.579.592.719,1.578.719.117,0,.895,0,1.777-.186.012-.012.662-.094.696-.094.419,0,1.046.537,1.046.92,0,.209-.092.384-.313.486-.397.175-1.499.315-2.334.315-1.126,0-2.277-.209-2.752-.582-.338-.266-.501-.673-.501-1.021,0-.105.023-.742.454-1.265.545-.673,1.268-1.196,1.987-1.639-.071-.475-.141-1.031-.709-1.031-.592,0-1.254.383-1.765,1.243-.105.185-.591.999-.65,1.057-.083.09-.174.15-.303.15-.337,0-.569-.497-.569-.953,0-.244.058-.465.64-1.091.731-.766,1.184-1.463,1.473-1.904-1.241.104-2.007-.674-2.078-1.406.349.222.871.5,1.916.5.326,0,.569-.024.732-.035.185-.361.522-1.034.522-1.289Z"/><path class="b" d="m148.492,66.635c1.87-.266,3.216-1.089,3.961-1.648.871-.649,1.37-1.441,1.37-2.635,0-1.847-1.811-1.883-1.997-1.883-2.01,0-3.319,1.453-4.215,2.439-.257.279-.523.488-.871.488-.905,0-1.648-1.174-1.648-1.857,0-.501.289-.789.405-.917.092.65.338.927.768.927.314,0,.44-.046,2.345-.813.917-.359,2.079-.685,3.368-.741h.174c1.694,0,3.356.963,3.356,2.913,0,2.125-1.834,2.985-2.567,3.229-1.557.497-3.45.628-4.449.592v-.094Z"/><path class="b" d="m161.189,57.66c1.02,0,1.961.975,1.961,1.382,0,.312-.197.452-.637.741-1.16.781-2.787,2.139-3.426,2.788-.174.163-.302.418-.302.581,0,.139.057.28.406.464,1.568.883,3.426,2.508,3.761,2.962.163.209.418.627.418,1.09s-.303,1.057-.882,1.057c-.372,0-.535-.244-.722-.533-.8-1.383-1.276-2.208-3.576-4.25-.44-.397-.44-.582-.44-.709,0-.429.302-.754,1.347-1.879,1.068-1.151,1.742-1.87,1.974-2.326.08-.16.128-.335.128-.51,0-.277-.14-.489-.743-.719.151-.059.371-.139.732-.139Z"/><path class="b" d="m168.909,60.958c.452-1.116,1.442-1.904,2.114-1.904.395,0,.768.173,1.15.707.406.582.662,1.754.662,2.836,0,.857-.15,2.647-.894,3.794-.882,1.372-2.927,2.335-3.402,2.509l-.023-.092c.965-.673,1.673-1.766,2.102-2.81.488-1.208.639-2.508.639-3.808,0-.627-.069-1.788-.246-2.207-.045-.116-.171-.325-.405-.325-.394,0-.732.406-.94.754-.36.582-.906,1.684-.906,2.868,0,.257.106,1.349.106,1.569,0,.558-.349.73-.583.73-.196,0-.429-.127-.533-.231-.451-.488-.614-1.289-.614-2.369,0-1.01.277-2.601.393-3.6,0-.069.014-.162.014-.242,0-.491-.361-.781-.849-.943.361-.371.814-.371.917-.371.371,0,.929.175,1.313.533.163.153.209.302.209.488,0,.152-.035.314-.198.663-.522,1.022-.894,1.766-.894,2.614,0,.232.035.567.105.567.023,0,.094-.104.105-.115l.662-1.614Z"/><path class="b" d="m178.202,59.426c0-.605-.36-.754-.963-.917.22-.162.452-.338.917-.338.488,0,1.636.338,1.636.94,0,.175-.046.268-.162.478-.268.543-.302.603-.383.799.245-.104.314-.14.558-.301.474-.326.637-.359.788-.359.349,0,.734.382.734.706,0,.268-.28.431-.397.489-.091.057-.917.488-2.17.779-.023.082-.035.104-.094.266-.86,2.612-1.87,5.18-1.951,5.34-.325.628-.465.722-.72.722-.323,0-.823-.349-.823-.975,0-.281.057-.373.614-1.256.397-.637,1.128-1.938,1.823-3.89-.442.058-.802.105-1.068.105-.928,0-1.569-.741-1.601-1.44.451.291.88.442,1.544.442.488,0,.962-.082,1.462-.209.082-.315.255-.965.255-1.381Zm1.671,6.084c0,.522.512.836.908.93.277.069.579.092.962.092.639,0,.954-.082,1.22-.141.278-.069.442-.103.582-.103.685,0,1.173.673,1.173.976,0,.058-.012.289-.221.406-.232.118-.916.325-1.962.325-.719,0-3.264-.091-3.264-1.741,0-.441.337-1.186.837-1.498-.071.149-.234.465-.234.754Zm1.535-2.137c.624-.348,1.088-.802,1.088-.975,0-.222-.649-.257-.868-.257-.049,0-.698,0-1.137.152.708-.754,1.879-1.02,2.612-1.02,1.382,0,1.799.753,1.799,1.102,0,.465-.463.488-.662.488-.092,0-.523-.023-.616-.023-.486,0-1.033.185-1.196.243-.756.291-.836.326-.976.372l-.045-.081Z"/><path class="b" d="m191.271,62.804c-.162.465-.36,1.044-.51,1.416-.257.639-.42,1.08-.42,1.429,0,.033,0,.149.035.266.149.429.163.475.163.605,0,.349-.289.57-.696.57-.848,0-2.299-1.059-2.358-4.055,0-.231-.014-1.266-.023-1.473-.048-1.279-.185-1.531-.591-2.23.51.071,1.287.208,1.914.916.162.186.277.351.277.745,0,.196-.056.37-.103.546-.14.545-.349,1.3-.349,1.974,0,.651.222,1.636.56,1.636.185,0,.382-.245.438-.301.732-.859,1.466-1.928,1.569-2.08l.092.036Zm1.8,1.116c.081-.013,1.51-.234,1.626-.291.048-.012.162-.092.162-.326,0-.196-.162-1.054-.476-1.682-.348-.675-.883-1.187-1.197-1.463,1.906.104,3.404,2.065,3.404,3.633,0,.906-.488,1.453-.883,1.453-.289,0-.406-.163-.673-.501-.152-.194-.289-.313-.651-.429-.452-.15-1.102-.267-1.313-.302v-.091Z"/><path class="b" d="m197.739,66.312c0-.965.765-1.732,1.716-1.732.966,0,1.72.768,1.72,1.732,0,.951-.754,1.718-1.72,1.718-.951,0-1.716-.767-1.716-1.718Zm2.821,0c0-.639-.5-1.116-1.105-1.116-.592,0-1.102.477-1.102,1.116,0,.626.499,1.102,1.102,1.102s1.105-.488,1.105-1.102Z"/><path class="c" d="m136.842,43.326v-6.374c0-5.402-3.04-7.733-7.348-7.733s-5.89,1.602-6.824,2.54c-.944-.942-2.511-2.54-6.826-2.54s-7.356,2.331-7.356,7.733v6.731c0,2.513-.379,4.535-.432,4.824h7.468v-10.875c0-2.34,0-4.007,1.867-4.007s1.86,1.667,1.86,4.007v10.875h6.833v-10.867c0-2.348,0-4.015,1.869-4.015,1.859,0,1.859,1.667,1.859,4.015v7.093c0,2.886,1.944,4.19,4.267,4.19,1.05,0,2.623,0,4.11-.302.458-.093.458-.175.107-.53-.514-.505-1.451-1.785-1.451-4.765Zm-119.018-1.035c-1.939-2.626-3.762-5.486-3.762-5.486l8.876-8.615c-1.498-.116-3.772-.483-5.8-.096-2.142.415-3.444,1.496-5.538,3.766-2.093,2.271-4.112,4.48-4.112,4.48v-15.642H.432v22.928c0,2.513-.376,4.534-.432,4.882h7.926c-.049-.348-.438-2.369-.438-4.882v-4.657l4.622,6.62c1.441,2.103,3.388,3.232,5.71,3.273,2.323.041,3.64-.146,5.553-.342v-.131c-1.416-.942-3.613-3.473-5.55-6.098Zm11.383-14.34c2.031,0,3.681-1.647,3.681-3.684s-1.65-3.681-3.681-3.681-3.681,1.646-3.681,3.681,1.647,3.684,3.681,3.684Zm3.527,2.67h-7.057v13.004c0,2.513-.379,4.534-.437,4.882h7.925c-.053-.339-.43-2.369-.43-4.882v-13.004Zm62.345-1.855c-5.54,0-10.796,4.154-10.796,10.186s5.26,10.182,10.839,10.182c5.491,0,10.865-4.035,10.865-10.182,0-6.342-5.66-10.186-10.908-10.186Zm.099,16.3c-3.291,0-3.776-3.635-3.776-6.114,0-2.629.537-6.102,3.776-6.102,3.052,0,3.661,3.481,3.661,6.081,0,2.47-.556,6.134-3.661,6.134Zm87.727,3.025c-.495-.579-1.443-1.879-1.443-4.749v-6.065c0-2.588-.611-8.068-9.574-8.068s-9.563,5.48-9.563,7.978l-.004,6.966c0,2.837-4.677,2.837-4.677,0v-6.966c0-2.548.177-7.978-8.929-7.978-5.265,0-7.39,2.594-6.63,6.054,1.277-.892,3.88-1.809,5.86-1.809,1.014,0,2.599.236,2.599,1.496,0,1.117-1.077,1.651-2.56,2.091-3.249.966-8.43,2.328-8.43,6.742s5.202,6.465,11.014,4.17c.592-.236,1.023-.491,1.343-.75.797.781,2.024,1.312,3.903,1.312,1.563,0,14.093-.008,14.093-.008-.313-.469-.554-2.152-.554-4.427v-6.869c0-.892.024-3.583,2.549-3.583s2.529,2.691,2.529,3.583v7.521c0,2.886,1.936,4.19,4.231,4.19,1.008,0,2.59-.021,4.144-.302.474-.116.428-.138.096-.53Zm-36.939-4.063c0-2.364,2.916-3.665,4.58-4.068-.008.033,0,1.655,0,3.314,0,.685.073,1.456.319,2.193-1.793.852-4.899.742-4.899-1.439Z"/><path class="c" d="m55.114,42.292c-1.938-2.626-3.759-5.486-3.759-5.486l8.874-8.615c-1.496-.116-3.766-.483-5.796-.096-2.142.415-3.45,1.496-5.538,3.766-2.096,2.271-4.114,4.48-4.114,4.48v-15.642h-7.055v22.928c0,2.513-.375,4.534-.433,4.882h7.927c-.052-.348-.439-2.369-.439-4.882v-4.657l4.619,6.62c1.444,2.103,3.391,3.232,5.715,3.273,2.321.041,3.639-.146,5.552-.342v-.131c-1.411-.942-3.612-3.473-5.552-6.098Z"/><path class="c" d="m87.142,49.437c-2.878-1.51-5.506-4.773-7.205-7.125-.395-.551-3.807-5.507-3.807-5.507l8.865-8.615c-1.492-.116-3.767-.483-5.796-.096-2.138.415-3.442,1.496-5.535,3.766-1.932,2.094-3.795,4.13-4.072,4.435v-15.597h-7.078v22.928c0,2.513-.355,4.534-.415,4.882h7.929c-.051-.348-.437-2.369-.437-4.882v-4.657s2.15,2.967,4.867,6.86c3.367,4.834,6.232,4.353,12.557,4.042.562-.117.423-.301.126-.436Z"/><path class="c" d="m193.636,17.038c-.372,1.239-1.273.622-1.273-.08,0-.945.321-1.216.321-1.216l-.652-.761h-2.859v-.876h2.285l1.03-2.278-.478-.862h-1.298v-1.058h1.825l.329-.789h.764v-.102h-2.924v-.397l-.583-.343-.561.343v.405h-3.536v-.405l-.56-.343-.586.343v.397h-2.924v.102h.764l.327.789h1.826v1.058h-1.296l-.48.862,1.03,2.278h2.287v.876h-2.859l-.652.761s.319.271.319,1.216c0,.701-.901,1.318-1.273.08,0,0-.228,2.15,1.122,2.15.895,0,1.323-1.302,1.019-3.2h2.323v1.395h-.784v-.719l-.33-.234-.355.243v1.616l.73.748s.761-.712,2.117-.713c1.357.001,2.12.713,2.12.713l.728-.748v-1.616l-.353-.243-.33.234v.719h-.784v-1.395h2.322c-.3,1.897.124,3.2,1.02,3.2,1.351,0,1.121-2.15,1.121-2.15Zm-7.214-4.7h-1.117l.178.373h.939v.524h-1.823l-.636-1.408h2.459v.511Zm1.37-1.373h-1.757v-1.046h3.515v1.046h-1.758Zm1.371,2.27v-.524h.942l.175-.373h-1.117v-.511h2.461l-.636,1.408h-1.825Z"/><path class="c" d="m179.377,9.656v8.575l8.415,4.17,8.42-4.17v-8.575l-8.42-4.106-8.415,4.106Zm8.415-3.641c.177.085,7.778,3.793,8.002,3.902v8.056c-.223.11-7.823,3.871-8.002,3.961-.178-.09-7.775-3.85-7.998-3.961v-8.056c.224-.11,7.821-3.817,7.998-3.902Z"/><path class="c" d="m201.15,6.534l-13.349-6.534-13.373,6.534v14.737l13.364,6.681,13.358-6.681V6.534Zm-4.087,12.21l-9.266,4.543-9.28-4.527v-9.613l9.272-4.524,9.274,4.506v9.615Z"/></svg>