<?xml version="1.0" encoding="UTF-8"?><svg id="a" xmlns="http://www.w3.org/2000/svg" viewBox="0 0 201.25 68.9"><defs><style>.b{fill:#595750;}.c{fill:#f08300;}.d{fill:none;}</sttyle></defs><rect class="d" width="201.25" height="68.9"/><path class="b" d="m77.347,65.058c.418.881,1.08,2.1264,1.73,2.1264.732,0,1.487-.533,1.487-1.522,0-.614-.349-1.509-1.52-1.509-.965,0-1.8.337-2.613.882.023.998.023,1.106.034,1.314.012.174.069.963.069,1.125,0,.349-.009.835-.371,1.3-.151.185-.279,.257-.452.257-.371,0-.582-.535-.777-1.022-.048-.106-.349-.546-.732-.906-.209.243-.232.278-.417.533-.035.035-.128.176-.372.176-.546,0-.894-.722-.894-1.256,0-.23.103-.743.592-1.034-.012.429-.012.72.22.72.082,0,.163-.048.302-.138.603-.395,1.162-.745,1.87-1.138.012-.872.012-.963.012-1.893-.303.069-.64.14-1.011.14-.883,0-1.313-.849-1.313-1.347.245.21.442.349.976.349.442,0,.802-.081,1.348-.269,0-1.067,0-1.451-.105-1.788-.128-.407-.743-.499-.976-.535.266-.393.848-.499,1.056-.499.465,0,2.534.327,2.534.801,0,.118-.058.289-.082.348-.268.592-.315.698-.395,1.243.046-.023.419-.254.628-.382.126-.082.243-.141.442-.141.348,0,.742.234.742.594,0,.232-.103.394-.905.789-.418.209-.569.278-1.011.431-.035.836-.035.87-.023,1.683,1.847-.838,3.101-.883,3.322-.883.429,0,2.368.208,2.368,2.23,0,1.916-1.534,2.6-2.519,2.6-1.603,0-2.184-1.696-2.336-2.511v.094Zm-3.032,1.056c.14.069.36.186.802.418.082.047.185.081.257.081.092,0,.126-.059.126-.407-.012-.266-.012-.985,0-1.301-.557.488-.882.861-1.185,1.209Z"/><path class="b" d="m89.319,62.804c-.162.465-.36,1.044-.51,1.416-.255.639-.419,1.08-.419,1.429,0,.033,0,.149.035.266.151.429.163.475.163.605,0,.349-.291.57-.698.57-.847,0-2.298-1.059-2.356-4.055,0-.231-.012-1.266-.023-1.473-.046-1.279-.185-1.531-.592-2.23.511.071,1.289.208,1.916.916.163.186.28.351.28.745,0,.196-.058.37-.105.546-.14.545-.349,1.3-.349,1.974,0,.651.22,1.636.557,1.636.186,0,.383-.245.442-.301.73-.859,1.463-1.928,1.567-2.08l.092.036Zm1.8,1.116c.082-.013,1.51-.234,1.625-.291.048-.012.163-.092.163-.326,0-.196-.163-1.054-.476-1.682-.349-.675-.883-1.187-1.197-1.463,1.905.104,3.402,2.065,3.402,3.633,0,.906-.488,1.453-.882,1.453-.291,0-.406-.163-.674-.501-.151-.194-.291-.313-.65-.429-.454-.15-1.103-.267-1.313-.302v-.091Z"/><path class="b" d="m105.304,64.313c-.837,2.705-3.056,3.867-4.924,3.867-.232,0-1.521-.023-2.184-.638-.651-.592-.685-1.626-.685-2.673,0-.786.117-4.246.117-4.946,0-.23,0-.579-.105-.766-.094-.185-.465-.441-1.116-.418.488-.37.988-.546,1.336-.546.523,0,1.347.338,1.66.86.069.104.082.244.082.35,0,.162-.046.312-.163.683-.162.5-.255.812-.382,1.812-.117.941-.268,2.229-.268,3.159,0,.87.046,1.242.476,1.463.279.137.628.209.954.209,1.59,0,3.878-.916,5.144-2.486l.057.07Z"/><path class="b" d="m111.498,62.804c-.163.465-.361,1.044-.511,1.416-.257.639-.42,1.08-.42,1.429,0,.033,0,.149.037.266.151.429.162.475.162.605,0,.349-.289.57-.696.57-.848,0-2.299-1.059-2.358-4.055,0-.231-.014-1.266-.023-1.473-.048-1.279-.186-1.531-.594-2.23.511.071,1.289.208,1.917.916.163.186.277.351.277.745,0,.196-.056.37-.103.546-.14.545-.349,1.3-.349,1.974,0,.651.221,1.636.558,1.636.186,0,.383-.245.442-.301.73-.859,1.462-1.928,1.567-2.08l.094.036Zm1.798,1.116c.083-.013,1.511-.234,1.628-.291.048-.012.162-.092.162-.326,0-.196-.162-1.054-.476-1.682-.348-.675-.883-1.187-1.197-1.463,1.906.104,3.404,2.065,3.404,3.633,0,.906-.488,1.453-.882,1.453-.289,0-.406-.163-.673-.501-.152-.194-.289-.313-.651-.429-.452-.15-1.102-.267-1.314-.302v-.091Z"/></svg>