<?xml version="1.0" encoding="UTF-8"?>
<svg id="_レイヤー_1" data-name="レイヤー 1" xmlns="http://www.w3.org/2000/svg" viewBox="0 0 577.64 1026.92">
  <defs>
    <style>
      .cls-1 {
        fill: #fff;
      }
    </style>
  </defs>
  <path class="cls-1" d="M178.96,614.72l-5.76-9.74c2.11-1.78,3.72-4.21,4.45-7.08,1.88-7.34-2.56-14.84-9.9-16.72-7.34-1.88-14.84,2.56-16.72,9.9-1.88,7.34,2.56,14.84,9.9,16.72,2.91.74,5.83.5,8.43-.53l5.75,9.72c.31.53.81.88,1.37,1.03s1.16.07,1.69-.24c1.06-.63,1.41-2,.78-3.06ZM155.36,592.18c1.27-4.95,6.33-7.95,11.29-6.68,4.95,1.27,7.95,6.33,6.68,11.29s-6.33,7.95-11.29,6.68c-4.95-1.27-7.95-6.33-6.68-11.29Z"/>
  <g>
    <path class="cls-1" d="M203.61,592.2c-2.15,3.72-5.54,6.43-10.1,8.14-.14.06-.25.03-.34-.08-.08-.14-.08-.25.03-.34,2.91-2.57,5.17-5.65,6.82-9.26.03-.06.06-.08.11-.06l3.64,1.09c.17.06.22.17.17.34-.06.14-.17.2-.34.17ZM211.75,610.49c-.42.56-1.04.84-1.82.84-.98-.03-1.45-.53-1.45-1.54,0-.22.03-.5.08-.84l.14-.84c-6.27,1.43-9.65,2.15-10.15,2.13-.03.14-.08.2-.22.22-.17.03-.28-.03-.31-.22l-.53-3.27c-.03-.06,0-.08.03-.08l2.74-.14c.34-1.37.78-3.66,1.31-6.85.03-.06.06-.08.08-.06l4.36.45c.2.03.25.11.22.31-.03.14-.11.22-.28.22-.84,1.71-1.9,3.64-3.19,5.82,2.38-.11,4.34-.22,5.93-.34-.08-1.15-.42-2.18-.98-3.13-.08-.14-.06-.25.14-.31.06-.03.2.03.39.11,2.71,1.2,4.06,3.08,4.06,5.57,0,.81-.2,1.45-.56,1.96ZM216.14,596.7c-.39.28-.76.62-1.09,1.03-.17.2-.42.56-.73,1.06-.14.2-.28.31-.48.31-.08,0-.17-.03-.25-.08-2.52-1.71-4.42-4.28-5.71-7.75-.08-.2-.03-.36.11-.48.14-.11.28-.11.42.03,1.73,1.71,4.73,3.36,8.95,4.92q.06.03.03.06l-1.26.9Z"/>
    <path class="cls-1" d="M245.82,604.42c0,.06-.03.11-.11.2l-2.63,3.27c-.14.25-.08.7.22,1.34.11.25.17.45.17.64,0,.64-.22,1.15-.64,1.54-.42.36-.95.56-1.59.56s-1.23-.22-1.68-.67c-2.99-3.05-4.59-8.03-4.78-14.94,0-.2,0-.59-.03-1.17l-12.64.5c-.06,0-.08-.03-.11-.08l-.42-.92s.03-.06.06-.06h1.68l11.44-.36c-.03-2.21-.06-4.22-.03-6.04,0-.06.03-.08.06-.08l3.36-.11c.2,0,.31.08.31.25,0,.2-.08.28-.25.28-.08,1.68-.11,3.55-.08,5.59l3.75-.14,1.82-1.03c.08-.06.17-.03.2.06l.59,1.68c.03.08,0,.14-.11.14l-6.24.22c0,.2.03.59.06,1.17.14,2.27.31,3.89.5,4.84.39,1.99,1.12,3.78,2.18,5.43.17.25.39.39.64.39.2,0,.36-.06.5-.17l3.47-2.52c.11-.08.22-.06.31.06.03.03.06.08.06.14ZM232.73,606.88c-2.18.87-5.43,1.87-9.73,3.05-.03.14-.08.25-.22.28-.17.03-.28-.03-.31-.2l-.56-2.82c-.03-.06,0-.08.06-.08.81-.03,1.9-.11,3.33-.25v-6.32l-1.76.06-.84.11c-.06,0-.08-.03-.11-.06l-.39-.92s0-.06.03-.08l1.65.03,6.01-.22,1.82-1.03c.08-.06.14-.03.17.06l.62,1.68c.03.08-.03.14-.11.14l-3.44.14v6.1l3.75-.34c.25-.03.36.08.36.31,0,.2-.11.31-.31.39ZM243.11,591.92c-.25.34-.59.5-1.01.53-.62.03-1.01-.22-1.2-.73-.31-.9-1.01-1.43-2.1-1.59-.06-.03-.08-.06-.08-.08-.03-.06,0-.08.08-.11.87-.48,1.65-.76,2.35-.78.62-.03,1.15.08,1.57.34.5.31.75.73.75,1.31,0,.42-.11.81-.36,1.12Z"/>
    <path class="cls-1" d="M273.1,597.06l-4.67.14c-.08,2.55-.45,4.53-1.09,5.96-1.04,2.21-3.1,3.94-6.21,5.2-1.99.81-4.67,1.48-8.11,2.01-.25.03-.39-.06-.45-.28-.03-.2.06-.34.28-.42,2.77-.92,4.92-1.79,6.4-2.6,2.49-1.37,4.06-2.96,4.73-4.78.42-1.09.67-2.74.75-4.95l-4.81.17c0,.56.03,2.1.06,4.61,0,.25-.14.36-.39.39l-2.74.25c-.25,0-.39-.14-.39-.39l.03-4.75-3.13.11-.81.11c-.06,0-.08-.03-.11-.08l-.39-.92s0-.03.03-.06l1.68.03,2.77-.11v-1.15c0-1.4-.03-2.88-.06-4.45,0-.06.03-.08.06-.08l3.41-.17c.2,0,.28.08.28.25s-.08.25-.25.28c-.03,1.26-.03,2.63-.03,4.14v1.06l4.84-.17-.03-6.07c0-.08.03-.11.08-.11l3.61-.11c.14-.03.22.06.22.25,0,.17-.06.25-.2.28l-.03,5.62,2.18-.06,1.82-1.06c.08-.06.14-.03.17.08l.62,1.65c.03.08-.03.14-.11.17Z"/>
    <path class="cls-1" d="M294.05,591.19c-1.71,2.38-3.19,4.2-4.45,5.45l.67-.03c.17,0,.25.08.25.25,0,.14-.06.25-.2.28-.14,3.38-.14,7.36,0,11.86.03.53-.22.78-.76.81l-2.49.11c-.2.03-.39-.06-.53-.2-.14-.14-.22-.34-.22-.53.08-4.95.08-8.22.03-9.76-2.43,1.82-5.65,3.61-9.62,5.34-.2.08-.36.06-.48-.14-.11-.2-.08-.36.11-.5,3.61-2.49,6.49-4.89,8.7-7.22,1.9-2.01,3.75-4.53,5.57-7.55.03-.06.06-.08.11-.06l3.47,1.37c.17.06.22.17.14.34-.06.14-.17.2-.31.17Z"/>
    <path class="cls-1" d="M308.85,589.93c-.06,2.71-.08,5.37-.08,8.03s.03,6.38.08,11.22c0,.5-.25.78-.78.81l-2.32.2c-.22.03-.42-.03-.56-.17-.14-.14-.22-.34-.22-.56.06-4.5.08-8.22.08-11.16s-.03-5.68-.08-8.67c0-.06.03-.08.08-.08l3.75-.14c.2,0,.28.08.28.28,0,.14-.08.22-.22.25ZM316.57,600.56c-.31.39-.76.62-1.29.67-.78.08-1.34-.28-1.65-1.09-.5-1.31-1.9-2.15-4.17-2.52-.08-.03-.11-.06-.11-.14-.03-.06.03-.11.11-.17,1.2-.64,2.55-.95,4.03-.95.92,0,1.73.22,2.41.67.76.53,1.12,1.23,1.12,2.13,0,.53-.14,1.01-.45,1.4Z"/>
    <path class="cls-1" d="M343.79,599.05c-.2.14-.39.14-.53-.03-1.09.59-2.71,1.48-4.87,2.71.08.45.17,1.2.31,2.24.08.81-.2,1.23-.84,1.29l-1.4.11c-.5.03-.76-.28-.78-.92l-.03-1.03c-1.68,1.06-2.49,2.04-2.46,2.94.03.64.53.95,1.54.92.67-.03,1.73-.2,3.16-.56.22-.06.39-.08.53-.08.53,0,.87.34,1.06.98l.34,1.17c.03.14.06.25.06.34,0,.73-.39,1.15-1.15,1.29-.53.08-1.43.17-2.66.22-3.19.14-4.81-1.03-4.9-3.52-.03-1.2.39-2.32,1.26-3.36.56-.64,1.57-1.51,3.05-2.57-.2-1.62-.67-2.41-1.43-2.38-.53.03-1.26.39-2.15,1.09-.22.17-.36.62-.45,1.31-.11.92-.5,1.4-1.17,1.4-.36,0-.92-.17-1.65-.53-.48-.25-.73-.64-.73-1.17,0-.36.08-.81.28-1.31.48-1.31,1.09-3.16,1.79-5.59-1.26.08-2.35.14-3.22.17-.08,0-.11-.03-.11-.06l-.36-1.15c0-.06.03-.08.06-.08.7-.03,2.01-.06,3.92-.14.36-1.87.56-3.33.53-4.34.03-.03.06-.03.08-.06l3.19.03c.28,0,.42.14.39.42-.03.17-.11.28-.28.34-.03.03-.06.06-.06.08-.2,1.15-.39,2.24-.59,3.27,1.09-.08,2.24-.17,3.47-.31l1.85-1.26c.08-.06.17-.03.2.06l.75,1.82c.03.08,0,.14-.11.17-2.43.36-4.56.62-6.4.76-.31,1.4-.67,2.82-1.09,4.31-.03.03-.03.08-.03.14,0,.14.06.2.2.14.95-.36,1.71-.59,2.27-.62,1.4-.08,2.43.59,3.08,1.96,2.1-1.48,3.52-2.57,4.22-3.3.03-.03.06,0,.08.03l1.87,2.13c.14.2.11.39-.08.56Z"/>
    <path class="cls-1" d="M366.98,607.08c-2.01,1.17-5.03,2.04-9.03,2.63-.22.03-.36-.06-.42-.28-.06-.2.03-.34.22-.39,6.29-1.82,9.54-4.98,9.76-9.54.08-1.87-.28-3.33-1.09-4.42-.9-1.2-2.27-1.79-4.11-1.79-2.32,0-4.14.84-5.48,2.49-1.15,1.4-1.68,2.94-1.65,4.64.03.81.28,1.2.81,1.17,1.23-.03,2.46-1.15,3.69-3.3.75-1.34,1.45-2.94,2.07-4.81.03-.03.06-.06.08-.03l1.79,1.12c.25.08.31.28.22.53-.87,2.69-1.87,4.87-2.99,6.57-1.73,2.63-3.61,3.92-5.65,3.89-1.96-.03-2.94-1.45-2.94-4.22,0-2.55.9-4.67,2.69-6.41,1.71-1.68,3.86-2.63,6.43-2.82.48-.03.92-.06,1.34-.06,2.55,0,4.59.59,6.13,1.76,1.73,1.31,2.6,3.19,2.6,5.65,0,3.33-1.48,5.87-4.48,7.61Z"/>
    <path class="cls-1" d="M396.55,599.39c-.25.03-1.51.2-3.75.45-2.41,1.54-3.64,3.02-3.72,4.45-.06,1.12.67,1.87,2.15,2.27.62.17.92.53.92,1.06,0,.2-.03.39-.08.59l-.48,1.62c-.2.64-.59.98-1.2.98-.2,0-.42-.03-.62-.11-1.09-.39-1.96-1.01-2.6-1.9-.64-.87-.98-1.87-.98-3.02-.03-2.04,1.23-3.89,3.75-5.54-2.85.28-6.27.5-10.22.7-.03,0-.06-.03-.06-.08l-.28-1.03c0-.06.03-.08.06-.08l3.22-.11c3.08-3.5,5.79-7.02,8.11-10.52.03-.06.08-.08.14-.06l3.36,1.68c.25.14.31.31.2.53-.08.14-.17.22-.31.22-.06,0-.11,0-.2-.03-3.61,3.33-6.63,6.01-9.09,8.06,3.89-.25,6.91-.53,9.03-.87l1.68-1.29c.08-.06.17-.03.2.06l.87,1.82c.06.08.03.14-.11.17ZM385.69,593.4c-.62.03-1.03-.25-1.29-.87-.42-1.09-1.29-1.73-2.54-1.93-.06-.03-.08-.06-.11-.08,0-.06.03-.11.11-.17.98-.53,1.9-.81,2.74-.81.7,0,1.29.17,1.73.5.5.39.75.92.75,1.62,0,1.09-.48,1.68-1.4,1.73ZM395.71,596.23c-.45.03-.78-.2-.98-.7-.28-.7-.87-1.15-1.79-1.29-.06-.03-.08-.03-.11-.06.03-.03.06-.08.11-.11.62-.42,1.26-.64,1.93-.64,1.2,0,1.82.53,1.82,1.59,0,.73-.34,1.12-.98,1.2ZM398.95,595.02c-.42.03-.76-.2-.95-.7-.28-.7-.87-1.15-1.79-1.29-.14-.03-.14-.08,0-.17.59-.42,1.23-.62,1.93-.62,1.2,0,1.82.53,1.82,1.57,0,.73-.34,1.12-1.01,1.2Z"/>
    <path class="cls-1" d="M417.19,590.88l-6.8,6.91c-.25.25-.36.48-.36.67s.17.48.5.78c3.33,3.19,5.34,5.79,6.04,7.83.08.28.14.56.14.84,0,1.01-.39,1.71-1.15,2.07l-.56.28c-.25.14-.53.2-.81.2-.78,0-1.29-.42-1.48-1.29-.56-2.32-1.79-5.2-3.72-8.64-.48-.87-.73-1.57-.73-2.1,0-.48.14-.95.45-1.43.14-.22,1.17-1.79,3.1-4.67,1.2-1.76,1.93-3.02,2.21-3.72.03-.06.06-.08.08-.06l3.33,1.57c.25.11.31.28.17.53-.08.17-.22.25-.42.22Z"/>
  </g>
</svg>