<?xml version="1.0" encoding="UTF-8"?>
<svg id="_レイヤー_1" data-name="レイヤー 1" xmlns="http://www.w3.org/2000/svg" viewBox="0 0 577.64 1026.92">
  <defs>
    <style>
      .cls-1 {
        fill: #fff;
      }
    </style>
  </defs>
  <g>
    <path class="cls-1" d="M161.66,433.44c-.91,2.73-2.22,5.22-3.92,7.52l1.58-.08c.24,0,.36.12.36.4,0,.2-.08.32-.28.36v13.85c0,.36-.2.51-.55.55l-3.25.12c-.36.04-.55-.16-.55-.51v-11.52c-1.98,2.06-4.35,4-7.12,5.78-.2.12-.4.12-.55-.08-.16-.2-.16-.4.04-.59,4.55-4.63,7.92-10.37,10.01-17.22.04-.08.08-.12.16-.12l4.2.79c.24.04.32.2.28.44-.04.2-.2.32-.4.32ZM181.84,456.79c-3.13.44-6.1.67-8.98.67-1.46,0-2.93-.04-4.35-.16-1.07-.08-1.9-.47-2.53-1.15s-.95-1.54-.95-2.61v-15.04l-2.1.4-1.15.32s-.12-.04-.16-.08l-.75-1.23s0-.08.08-.08l2.3-.32,1.78-.36v-8.27c0-.08.04-.12.12-.12l4.63-.16c.28,0,.4.12.4.36,0,.2-.12.36-.36.4v6.85l2.53-.47v-10.41s.04-.08.08-.12l4.24-.12c.28,0,.4.12.4.36s-.12.36-.36.4v9.02l3.29-.67v-1.35s.04-.08.12-.08l4.08-.2c.24,0,.36.12.36.36,0,.2-.08.32-.28.36,0,1.54-.04,4.2-.12,8.04-.04,2.53-1.27,3.96-3.64,4.24-.83.12-1.27-.32-1.31-1.23-.04-.55-.48-.83-1.35-.79l-1.15.04v2.93c0,.36-.2.51-.55.55l-3.29.12c-.2,0-.32-.04-.4-.12-.12-.08-.16-.2-.16-.4l.04-9.62-2.53.47v13.7c0,.91.48,1.39,1.46,1.43,2.57.04,5.22-.08,8-.4.67-.08,1.11-.4,1.31-.91l3.17-5.11c.12-.2.28-.28.51-.2.16.04.2.24.12.51l-1.35,4.24c-.12.44.04.75.55.95,1.03.36,1.46,1.19,1.31,2.49-.2,1.46-1.19,2.3-3.05,2.57ZM176.7,436.17v6.61l2.38-.55c.55-.12.83-.47.87-.99.04-1.03.08-2.93.08-5.74l-3.32.67Z"/>
    <path class="cls-1" d="M214.62,451.88c-2.85,1.66-7.12,2.89-12.78,3.72-.32.04-.51-.08-.59-.4-.08-.28.04-.47.32-.55,8.91-2.57,13.5-7.05,13.81-13.5.12-2.65-.4-4.71-1.54-6.25-1.27-1.7-3.21-2.53-5.82-2.53-3.29,0-5.86,1.19-7.76,3.52-1.62,1.98-2.38,4.16-2.34,6.57.04,1.15.4,1.7,1.15,1.66,1.74-.04,3.48-1.62,5.22-4.67,1.07-1.9,2.06-4.16,2.93-6.81.04-.04.08-.08.12-.04l2.53,1.58c.36.12.44.4.32.75-1.23,3.8-2.65,6.89-4.23,9.3-2.45,3.72-5.11,5.54-8,5.5-2.77-.04-4.16-2.06-4.16-5.98,0-3.6,1.27-6.61,3.8-9.06,2.41-2.37,5.46-3.72,9.1-4,.67-.04,1.31-.08,1.9-.08,3.6,0,6.49.83,8.67,2.49,2.45,1.86,3.68,4.51,3.68,8,0,4.71-2.1,8.31-6.33,10.77Z"/>
    <path class="cls-1" d="M252.43,450.54c-2.33,3.44-5.78,5.26-10.41,5.42l-1.19.04c1.62,1.19,3.8,1.78,6.53,1.78,1.54,0,3.13-.12,4.75-.4.28-.04.44,0,.48.2.04.24-.04.4-.28.51-2.06.95-4.08,1.46-6.06,1.54-4.63.2-7.96-.95-9.94-3.4-.2-.28-.16-.51.12-.75l.24-.16c-4.99-1.54-7.52-5.94-7.56-13.18-.08-10.09,4.31-15.28,13.14-15.59,4.43-.16,7.76,1.19,9.94,4.04,1.94,2.53,2.93,6.06,2.93,10.61,0,3.56-.91,6.69-2.69,9.34ZM248.03,432.8c-1.31-3.13-3.36-4.63-6.25-4.51-2.89.12-4.95,1.78-6.17,4.99-.83,2.26-1.23,5.07-1.19,8.51.16,8.15,2.65,12.15,7.48,11.99,2.77-.12,4.79-1.62,6.06-4.59.91-2.14,1.39-4.83,1.43-8.04.04-3.32-.44-6.1-1.35-8.35Z"/>
    <path class="cls-1" d="M285.24,454.22c-.83.04-1.7.08-2.61.08-3.72,0-6.14-1.15-7.24-3.44-.83-1.66-2.14-4.31-4-7.96-.59,0-1.35.04-2.34.08-1.23.08-2.02.12-2.38.12v10.65c0,.71-.36,1.07-1.11,1.11l-2.93.12c-.75.04-1.11-.32-1.11-1.07l-.16-26.48s0-.08.08-.08l9.38-.32c7.01-.24,10.53,2.14,10.57,7.16.04,4-1.66,6.61-5.19,7.84.2.16.36.32.44.44l3.84,6.53c.71,1.23,1.39,2.1,2.06,2.69.75.71,1.7,1.27,2.93,1.7.28.12.4.24.36.44-.04.24-.24.36-.59.4ZM270.24,428.61c-.59.04-1.78.08-3.56.12v12.78l3.56-.12c2.38-.08,4-.79,4.87-2.1.59-.91.91-2.53.91-4.83,0-4-1.94-5.94-5.78-5.86Z"/>
    <path class="cls-1" d="M313.51,446.94c0,5.7-2.73,8.79-8.15,9.22-2.65.2-4.75-.47-6.21-2.06-1.39-1.46-2.1-3.56-2.14-6.29-.04-1.03.04-2.45.24-4.27-1.54.12-2.85.2-3.84.24-.08,0-.12-.04-.12-.12l-.4-1.39c-.04-.08,0-.12.12-.12,1.23-.04,2.69-.12,4.39-.24.12-1.27.32-3.36.59-6.29l-5.38.4s-.08-.04-.08-.08l-.51-1.42c-.04-.08,0-.12.08-.12,1.9-.12,3.92-.2,6.02-.32.04-1.07.08-2.06.08-3.01,0-1.7-.08-3.29-.24-4.71-.04-.08,0-.12.08-.12l4.47-.32c.4-.04.59.12.63.47.04.28-.08.47-.36.59-.04,2.81-.12,5.07-.24,6.77l1.43-.04,2.57-1.46c.16-.08.28-.04.32.12l.83,2.57c.04.16-.04.24-.2.24l-5.11.16-.55,6.14c.75-.08,1.46-.16,2.14-.28l2.53-1.78c.12-.12.24-.08.32.08l1.11,2.49c.08.16.04.24-.12.28-2.1.36-4.16.63-6.17.83l-.16,1.07c-.2,1.46-.32,2.49-.32,3.09.04,2.73,1.43,3.96,4.16,3.76,2.81-.2,4.67-1.54,5.58-4.04.59-1.62.83-4.12.71-7.48,0-.24.12-.36.32-.4.2-.04.36.08.44.36.75,2.77,1.15,5.26,1.15,7.48Z"/>
    <path class="cls-1" d="M337.46,434.11l-13.02.55s-.08-.04-.12-.08l-.59-1.31s.04-.08.08-.12l2.37.04,2.22-.08v-5.15c0-.08.04-.12.12-.12l4.35-.16c.28,0,.4.12.4.4,0,.2-.12.32-.32.36v4.51l.99-.04,2.57-1.23c.12-.04.24,0,.28.12l.83,2.06c.04.16,0,.24-.16.24ZM335.16,457.74l-2.73.08c-.36,0-.55-.16-.55-.51v-.79l-2.49.08v.79c0,.36-.2.51-.55.55l-2.69.12c-.36.04-.55-.16-.55-.55v-7.52c0-.36.16-.51.51-.44l3.29.71,2.49-.08,3.29-.95c.36-.12.55.04.55.4v7.52c0,.4-.2.59-.55.59ZM335.2,440.09l-7.4.28-1.19.12s-.12,0-.16-.08l-.55-1.31s0-.08.08-.08h2.38l3.32-.12,2.53-1.19c.12-.04.24-.04.28.08l.83,2.1c.04.12,0,.2-.12.2ZM335.2,445.11l-7.36.24-1.19.16c-.08,0-.12-.04-.16-.08l-.55-1.31s0-.08.08-.12l2.34.04,3.36-.12,2.53-1.23c.12-.04.24,0,.28.12l.83,2.06c.04.16,0,.24-.16.24ZM331.88,451.49l-2.49.08v3.72l2.49-.08v-3.72ZM347.95,448.12c.04,3.6-1.23,6.37-3.8,8.27-2.02,1.46-4.99,2.45-8.95,3.05-.24.04-.4-.04-.48-.2-.08-.2,0-.36.28-.47,3.13-1.19,5.22-2.49,6.37-3.92,1.31-1.62,1.9-4.04,1.78-7.2,0-.08.04-.12.12-.12l4.55-.16c.28,0,.4.12.4.36,0,.2-.08.36-.28.4ZM358.44,442.7c-.75.63-1.62,1.54-2.69,2.73-.16.2-.36.28-.55.24-.24-.04-.36-.16-.32-.4l.95-4.71-13.77.44c.2.67.28,1.23.28,1.74-.04.91-.32,1.66-.83,2.34-.51.67-1.23.99-2.1,1.03-.59,0-1.07-.2-1.42-.63-.4-.4-.59-.87-.59-1.46-.04-.59.4-1.35,1.23-2.22.48-.51.79-1.03.95-1.58.12-.4.2-1.07.28-2.06,0-.04.04-.08.12-.12.04-.04.12,0,.16.04.55.59.99,1.15,1.35,1.7l14.61-.47.28-1.35c.04-.24.16-.36.36-.32l5.58.75c.55.12.83.44.83.87s-.2.75-.63.91c-1.39.55-2.73,1.39-4.04,2.53ZM360.14,429.8l-8.04.28v3.96l3.36-.12,2.53-1.46c.12-.08.24-.04.28.08l.83,2.38c.04.12,0,.2-.12.2l-17.22.71c-.08,0-.12-.04-.16-.08l-.55-1.31s0-.08.04-.12l2.41.04,3.68-.12v-4l-5.66.2-1.15.16c-.08,0-.12-.04-.16-.12l-.59-1.31s0-.08.08-.08h2.41l5.07-.16v-4.47c0-.08.04-.12.12-.12l4.75-.16c.24,0,.36.12.36.36s-.12.36-.32.4v3.84l4.51-.16,2.57-1.5c.12-.04.24,0,.28.12l.83,2.34c.04.12,0,.2-.16.24ZM357.29,457.78c-1.11.16-2.77.16-4.99.04-1.39-.08-2.1-.79-2.1-2.1v-8.67c0-.08.04-.12.12-.12l4.39-.12c.28,0,.4.12.4.36s-.12.36-.36.4v5.22c0,.4.16.59.51.59.95.04,1.54-.16,1.78-.51l3.13-4.91c.08-.12.16-.16.28-.08.12.08.16.2.12.32l-1.54,4.12c-.16.44-.04.67.36.71,1.07.12,1.54.87,1.42,2.22-.12,1.39-1.27,2.22-3.52,2.53Z"/>
    <path class="cls-1" d="M397.79,446.34c-.2.83-.63,1.27-1.27,1.27-.28,0-.59-.08-.95-.24-1.39-.63-2.53-1.11-3.44-1.46-2.3,4.71-7.48,8.27-15.56,10.69-.36.12-.55,0-.67-.28-.12-.28,0-.47.32-.63,6.25-2.97,10.13-6.73,11.68-11.28-1.54-.51-3.8-1.07-6.73-1.62-1.98,5.66-4.83,8.55-8.55,8.63-2.81.04-4.24-1.82-4.24-5.66,0-1.86.59-3.4,1.78-4.63,1.11-1.15,2.61-1.86,4.51-2.14.67-.12,1.66-.16,2.89-.16.83-3.44,1.42-6.29,1.78-8.63-1.5.2-3.96.51-7.4.95-.04,0-.08-.04-.12-.12l-.44-1.54c-.04-.08,0-.12.04-.12,2.34-.2,5.07-.47,8.19-.87.04-.32.12-.79.2-1.42.04-.08.08-.12.16-.12l4.59.28c.4.04.55.24.51.63-.04.24-.16.4-.4.47-.51,2.61-1.31,6.25-2.41,10.88,1.98.24,4.16.63,6.53,1.15.36-2.18.55-3.96.59-5.34,0-.08.04-.12.12-.12l4.83.08c.4,0,.59.2.55.59-.04.28-.16.44-.4.51-.28,2.18-.55,3.96-.91,5.38l2.89.71c1.19.44,1.78,1.03,1.78,1.86,0,.28-.04.55-.08.75l-.4,1.54ZM375.3,442.11c-3.05,0-4.63,1.07-4.67,3.25-.04,1.31.55,1.98,1.7,2.02,1.58.04,3.01-1.7,4.23-5.15-.55-.08-.99-.12-1.27-.12Z"/>
    <path class="cls-1" d="M440.3,454.02c0,1.62-.24,2.49-.67,2.53-3.52.36-8.07.51-13.73.47-7.24-.04-13.14-.71-17.65-2.02-.44-.12-.63-.4-.59-.79l.08-.32c.12-.44.4-.63.87-.63.48.04.99.12,1.5.16.44-1.46.79-3.13,1.15-4.91l-3.48.12c-.08,0-.12-.04-.16-.08l-.16-1.15c-.04-.08,0-.12.08-.12l1.39-.04c.12-2.18.24-4.08.28-5.66l-1.82.08-1.19.12s-.08,0-.12-.08l-.59-1.31s0-.08.08-.08h2.3l1.39-.04.04-.75c0-.12.04-.16.08-.16l4.12.16c.36.04.51.2.4.55-.59,2.02-1.46,4.35-2.61,7.09l4.55-.16c.12,0,.24.04.32.12.04.12.04.2,0,.32-1.03,2.1-2.3,4.16-3.76,6.14,2.18.16,4.27.24,6.37.24,3.01,0,6.37-.16,10.13-.51,2.65-.24,6.65-.87,11.99-1.86.04.04.08.08.12.12-.36.95-.59,1.78-.67,2.45ZM413.94,434.47c-.36.51-.87.75-1.5.79-.91.04-1.5-.36-1.78-1.11-.47-1.31-1.5-2.1-3.09-2.34-.24-.04-.24-.12,0-.28,1.23-.75,2.33-1.15,3.4-1.19.87-.04,1.62.16,2.3.51.79.44,1.19,1.07,1.19,1.9,0,.67-.16,1.23-.51,1.7ZM442.48,446.26c-1.66.51-2.93,1.07-3.8,1.7-.28.2-.75.63-1.39,1.27-.28.28-.55.28-.83,0-2.49-2.69-4.43-5.66-5.74-8.91-2.41,4.51-7.01,8.19-13.81,11-.36.12-.59.12-.71-.04-.16-.2-.08-.44.28-.67,5.58-4,9.46-8.98,11.6-14.96.04-.08.08-.12.16-.08l1.15.36c-.36-1.58-.75-3.84-1.15-6.73l-3.01.08c-.16,0-.28-.04-.36-.16l-.59-.95c-.08-.12-.04-.2.08-.2l4.87-.16c.75-.04,1.19.2,1.23.67.79,5.86,4.79,11.76,12.03,17.65.04.04.04.08,0,.12Z"/>
    <path class="cls-1" d="M471.89,453.51c-.99.55-2.49,1.03-4.55,1.46-1.78.36-3.6.55-5.46.63-1.9.08-3.29-.04-4.16-.4-1.31-.51-2.06-1.46-2.18-2.93-.28.04-.63.08-1.03.12-1.7.08-2.97-.44-3.88-1.54-.83-.99-1.23-2.37-1.19-4.08.04-4.39,1.82-6.57,5.34-6.57.55,0,1.07.16,1.58.44.28-1.86.44-3.92.48-6.25-1.74.12-3.92.28-6.57.4-.04,0-.08-.04-.12-.12l-.44-1.42c-.04-.08,0-.12.08-.12,2.22-.04,4.59-.2,7.09-.4-.04-2.02-.24-3.92-.59-5.66-.04-.08,0-.12.08-.16l4.35-.75c.36-.04.59.12.63.47.04.24-.08.44-.28.59.28,1.82.44,3.48.44,5.03.55-.08,2.02-.32,4.43-.71l2.53-1.9c.12-.12.24-.08.32.08l1.19,2.49c.04.12,0,.2-.16.24-2.41.47-5.19.95-8.39,1.42-.12,2.14-.4,5.42-.87,9.82.16,1.31.04,2.77-.32,4.47-.12.59-.2,1.11-.2,1.46,0,1.03.63,1.54,1.94,1.54.99,0,2.18-.16,3.56-.47,1.62-.36,2.69-.83,3.21-1.35.48-.51.67-1.39.55-2.57-.24-2.49-.32-5.19-.28-8.15,0-.12.08-.24.2-.28.16-.04.24.04.28.2.32,1.94.59,3.4.79,4.39.36,1.58.71,2.65,1.11,3.17.2.28.51.51,1.03.71s.91.51,1.27,1.03c.4.59.59,1.19.55,1.86-.04,1.66-.83,2.93-2.38,3.8ZM454.32,443.81c-.87-.04-1.5.2-1.94.75-.44.55-.67,1.27-.63,2.18.04,1.5.67,2.26,1.98,2.3,1.15.04,1.82-.75,2.02-2.3.04-.28.08-.87.2-1.74-.44-.75-.99-1.15-1.62-1.19ZM477.67,438.07c0,1.07-.51,1.82-1.58,2.22-.2.08-.4.12-.55.12-.59,0-1.11-.36-1.54-1.03-.91-1.42-2.3-2.14-4.16-2.1-.12,0-.16-.04-.2-.12,0-.08.04-.16.12-.24,1.46-1.39,2.97-2.1,4.51-2.1,1.42,0,2.45.63,3.09,1.9.2.44.32.87.32,1.35Z"/>
  </g>
  <path class="cls-1" d="M123.19,408.84h-21.32c-4.18,0-7.58,3.4-7.58,7.58v52.84c0,4.18,3.4,7.58,7.58,7.58h21.32c4.18,0,7.58-3.4,7.58-7.58v-52.84c0-4.18-3.4-7.58-7.58-7.58ZM108.76,414.24h7.54c.46,0,.83.37.83.83s-.37.83-.83.83h-7.54c-.46,0-.83-.37-.83-.83s.37-.83.83-.83ZM114.33,472.82h-3.6c-1.14,0-2.06-.92-2.06-2.06s.92-2.06,2.06-2.06h3.6c1.14,0,2.06.92,2.06,2.06s-.92,2.06-2.06,2.06ZM128.29,465.59h-31.52v-45.51h31.52v45.51Z"/>
  <rect class="cls-1" x="143.67" y="463.12" width="339.69" height=".99"/>
</svg>